<svg width="499" height="278" viewBox="0 0 499 278" fill="none" xmlns="http://www.w3.org/2000/svg">
<g clip-path="url(#clip0_2_4)">
<path d="M251.101 278C386.409 278 496.098 270.56 496.098 261.383C496.098 252.206 386.409 244.766 251.101 244.766C115.793 244.766 6.10449 252.206 6.10449 261.383C6.10449 270.56 115.793 278 251.101 278Z" fill="#F2F2F2"/>
<path d="M241.711 79.4698C201.794 79.4698 173.135 105.707 173.135 166.928C173.135 236.312 201.794 254.678 241.711 254.678C281.628 254.678 311.995 234.562 311.995 166.928C311.995 94.6292 281.628 79.4698 241.711 79.4698ZM241.973 231.647C214.326 231.647 199.882 215.029 199.882 166.973C199.882 124.57 214.918 102.209 242.565 102.209C270.212 102.209 285.247 116.897 285.247 166.973C285.247 213.818 269.621 231.647 241.973 231.647Z" fill="#2F2E41"/>
<path d="M149.233 206.284H132.729V156.493C132.729 153.848 131.703 151.312 129.878 149.442C128.053 147.572 125.577 146.521 122.996 146.521H119.129C117.851 146.521 116.585 146.779 115.404 147.28C114.223 147.781 113.15 148.516 112.247 149.442C111.343 150.368 110.626 151.467 110.137 152.677C109.648 153.887 109.396 155.183 109.396 156.493V206.284H62.8441C61.8864 206.284 60.945 206.031 60.1112 205.548C59.2774 205.065 58.5794 204.37 58.0851 203.53C57.5908 202.69 57.3169 201.733 57.2899 200.752C57.263 199.771 57.4839 198.8 57.9313 197.932L107.201 102.393C107.815 101.202 108.188 99.8957 108.296 98.5531C108.404 97.2105 108.245 95.8594 107.829 94.5814C107.413 93.3033 106.749 92.1249 105.876 91.1172C105.003 90.1094 103.941 89.2933 102.752 88.7181L99.843 87.3109C97.5846 86.2183 95.0026 86.057 92.6313 86.8603C90.2601 87.6636 88.281 89.3702 87.1035 91.6268L27.0125 206.795C25.9892 208.757 25.4539 210.946 25.4539 213.17V213.17C25.4539 214.945 25.7952 216.704 26.4585 218.344C27.1217 219.985 28.0939 221.475 29.3194 222.731C30.5449 223.986 31.9998 224.982 33.601 225.662C35.2022 226.341 36.9184 226.691 38.6516 226.691H109.396V258.176C109.396 259.746 109.698 261.3 110.284 262.75C110.87 264.2 111.73 265.518 112.813 266.628C113.896 267.738 115.182 268.618 116.598 269.219C118.013 269.82 119.53 270.129 121.062 270.129H121.062C122.594 270.129 124.111 269.82 125.527 269.219C126.942 268.618 128.228 267.738 129.312 266.628C130.395 265.518 131.254 264.2 131.841 262.75C132.427 261.3 132.729 259.746 132.729 258.176V226.691H149.233C151.874 226.691 154.407 225.616 156.275 223.703C158.143 221.789 159.192 219.194 159.192 216.488V216.488C159.192 213.782 158.143 211.186 156.275 209.273C154.407 207.359 151.874 206.284 149.233 206.284V206.284Z" fill="#7763FF"/>
<path d="M454.838 206.284H438.334V156.493C438.334 153.848 437.309 151.312 435.484 149.442C433.658 147.572 431.183 146.521 428.602 146.521H424.734C423.456 146.521 422.191 146.779 421.01 147.28C419.829 147.781 418.756 148.516 417.852 149.442C416.948 150.368 416.231 151.467 415.742 152.677C415.253 153.887 415.001 155.183 415.001 156.493V206.284H368.45C367.492 206.284 366.551 206.031 365.717 205.548C364.883 205.065 364.185 204.37 363.691 203.53C363.196 202.69 362.922 201.733 362.896 200.752C362.869 199.771 363.09 198.8 363.537 197.932L412.807 102.393C413.421 101.202 413.793 99.8957 413.901 98.5531C414.009 97.2105 413.85 95.8594 413.435 94.5814C413.019 93.3033 412.354 92.1249 411.482 91.1172C410.609 90.1094 409.546 89.2933 408.357 88.7181L405.449 87.3109C403.19 86.2183 400.608 86.057 398.237 86.8603C395.866 87.6636 393.887 89.3702 392.709 91.6268L332.618 206.795C331.595 208.757 331.059 210.946 331.059 213.17V213.17C331.059 216.756 332.45 220.195 334.925 222.731C337.4 225.267 340.757 226.691 344.257 226.691H415.001V258.176C415.001 261.346 416.231 264.386 418.418 266.628C420.606 268.869 423.574 270.129 426.668 270.129V270.129C429.762 270.129 432.729 268.869 434.917 266.628C437.105 264.386 438.334 261.346 438.334 258.176V226.691H454.838C457.48 226.691 460.013 225.616 461.88 223.703C463.748 221.789 464.797 219.194 464.797 216.488V216.488C464.797 213.782 463.748 211.186 461.88 209.273C460.013 207.359 457.48 206.284 454.838 206.284Z" fill="#7763FF"/>
<path d="M153.785 200.454H137.282V150.662C137.282 149.353 137.03 148.056 136.541 146.846C136.052 145.636 135.335 144.537 134.431 143.611C133.527 142.685 132.454 141.951 131.273 141.45C130.092 140.948 128.827 140.691 127.549 140.691H123.681C121.1 140.691 118.625 141.741 116.799 143.611C114.974 145.481 113.949 148.018 113.949 150.662V200.454H67.3968C66.4391 200.454 65.4977 200.2 64.6639 199.717C63.8301 199.235 63.1322 198.54 62.6379 197.699C62.1435 196.859 61.8696 195.902 61.8427 194.921C61.8157 193.94 62.0367 192.969 62.4841 192.102L111.754 96.5626C112.368 95.3715 112.74 94.0652 112.848 92.7226C112.956 91.3799 112.797 90.0288 112.382 88.7508C111.966 87.4728 111.302 86.2944 110.429 85.2866C109.556 84.2789 108.493 83.4628 107.304 82.8875L104.396 81.4804C102.137 80.3877 99.5554 80.2264 97.1841 81.0297C94.8128 81.8331 92.8337 83.5396 91.6563 85.7962L31.5652 200.965C30.5419 202.926 30.0066 205.115 30.0066 207.339V207.339C30.0066 210.925 31.3971 214.365 33.8721 216.9C36.3472 219.436 39.704 220.861 43.2043 220.861H113.949V252.346C113.949 253.915 114.25 255.469 114.837 256.92C115.423 258.37 116.282 259.687 117.366 260.797C118.449 261.907 119.735 262.788 121.15 263.388C122.566 263.989 124.083 264.298 125.615 264.298H125.615C128.709 264.298 131.677 263.039 133.865 260.797C136.052 258.556 137.282 255.516 137.282 252.346V220.861H153.785C155.093 220.861 156.388 220.597 157.597 220.084C158.805 219.571 159.903 218.82 160.828 217.872C161.752 216.925 162.486 215.8 162.986 214.562C163.487 213.324 163.745 211.997 163.745 210.657V210.657C163.745 209.317 163.487 207.99 162.987 206.752C162.486 205.514 161.752 204.39 160.828 203.442C159.903 202.495 158.805 201.743 157.597 201.23C156.388 200.718 155.093 200.454 153.785 200.454V200.454Z" stroke="#3F3D56" stroke-miterlimit="10"/>
<path d="M463.375 200.454H446.871V150.662C446.871 148.018 445.846 145.481 444.02 143.611C442.195 141.741 439.719 140.691 437.138 140.691H433.271C431.993 140.691 430.727 140.948 429.546 141.45C428.365 141.951 427.292 142.685 426.389 143.611C425.485 144.537 424.768 145.636 424.279 146.846C423.79 148.056 423.538 149.353 423.538 150.662V200.454H376.986C376.029 200.454 375.087 200.2 374.253 199.717C373.419 199.235 372.722 198.54 372.227 197.699C371.733 196.859 371.459 195.902 371.432 194.921C371.405 193.94 371.626 192.969 372.073 192.102L421.343 96.5626C421.958 95.3715 422.33 94.0652 422.438 92.7226C422.546 91.3799 422.387 90.0288 421.971 88.7508C421.555 87.4728 420.891 86.2944 420.018 85.2866C419.146 84.2789 418.083 83.4628 416.894 82.8875L413.985 81.4804C411.727 80.3877 409.145 80.2264 406.773 81.0297C404.402 81.8331 402.423 83.5396 401.246 85.7962L341.155 200.965C340.131 202.926 339.596 205.115 339.596 207.339C339.596 210.925 340.986 214.365 343.461 216.9C345.937 219.436 349.293 220.861 352.794 220.861H423.538V252.346C423.538 255.516 424.767 258.556 426.955 260.797C429.143 263.039 432.11 264.298 435.204 264.298V264.298C438.299 264.298 441.266 263.039 443.454 260.797C445.642 258.556 446.871 255.516 446.871 252.346V220.861H463.375C464.683 220.861 465.978 220.597 467.186 220.084C468.394 219.571 469.492 218.82 470.417 217.872C471.342 216.925 472.075 215.8 472.576 214.562C473.076 213.324 473.334 211.997 473.334 210.657V210.657C473.334 207.951 472.285 205.356 470.417 203.442C468.549 201.529 466.016 200.454 463.375 200.454V200.454Z" stroke="#3F3D56" stroke-miterlimit="10"/>
<path d="M250.817 74.2223C210.9 74.2223 182.24 100.46 182.24 161.681C182.24 231.064 210.9 249.43 250.817 249.43C290.733 249.43 321.1 229.315 321.1 161.681C321.1 89.3817 290.733 74.2223 250.817 74.2223ZM251.079 226.4C223.432 226.4 208.988 209.782 208.988 161.725C208.988 119.322 224.023 96.9614 251.67 96.9614C279.317 96.9614 294.353 111.65 294.353 161.725C294.353 208.57 278.726 226.4 251.079 226.4V226.4Z" stroke="#3F3D56" stroke-miterlimit="10"/>
<path d="M218.821 14.8232C222.13 14.8232 224.813 12.0747 224.813 8.68427C224.813 5.29386 222.13 2.54539 218.821 2.54539C215.512 2.54539 212.829 5.29386 212.829 8.68427C212.829 12.0747 215.512 14.8232 218.821 14.8232Z" fill="#2F2E41"/>
<path d="M233.435 44.6192C242.717 44.6192 250.242 34.6309 250.242 22.3096C250.242 9.98835 242.717 0 233.435 0C224.153 0 216.629 9.98835 216.629 22.3096C216.629 34.6309 224.153 44.6192 233.435 44.6192Z" fill="#2F2E41"/>
<path opacity="0.1" d="M233.435 37.8814C225.016 37.8814 218.043 29.6634 216.819 18.9407C216.692 20.0589 216.628 21.1838 216.629 22.3096C216.629 34.6309 224.153 44.6192 233.435 44.6192C242.717 44.6192 250.242 34.6309 250.242 22.3096C250.242 21.1838 250.179 20.0589 250.051 18.9407C248.828 29.6634 241.855 37.8814 233.435 37.8814Z" fill="black"/>
<path d="M267.635 87.6442C267.274 89.1638 265.718 90.3808 263.994 91.2311C260.371 93.0187 255.901 93.5521 251.566 93.7312C250.46 93.8001 249.35 93.779 248.247 93.6684C246.111 93.4566 244.106 92.5125 242.558 90.9887C242.447 90.9149 242.357 90.8137 242.295 90.6943C242.233 90.575 242.201 90.4415 242.203 90.3064C242.205 90.1712 242.241 90.0388 242.306 89.9215C242.372 89.8042 242.465 89.7058 242.578 89.6355C244.886 87.038 248.738 85.4452 252.618 84.2985C255.56 83.4289 260.69 81.1765 263.899 81.4805C267.007 81.7749 268.091 85.7256 267.635 87.6442Z" fill="#3F3D56"/>
<path opacity="0.1" d="M267.635 87.6442C267.274 89.1638 265.718 90.3808 263.994 91.2311C260.371 93.0187 255.901 93.5521 251.566 93.7312C250.46 93.8001 249.35 93.779 248.247 93.6684C246.111 93.4566 244.106 92.5125 242.558 90.9887C242.447 90.9149 242.357 90.8137 242.295 90.6943C242.233 90.575 242.201 90.4415 242.203 90.3064C242.205 90.1712 242.241 90.0388 242.306 89.9215C242.372 89.8042 242.465 89.7058 242.578 89.6355C244.886 87.038 248.738 85.4452 252.618 84.2985C255.56 83.4289 260.69 81.1765 263.899 81.4805C267.007 81.7749 268.091 85.7256 267.635 87.6442Z" fill="black"/>
<path d="M221.562 76.2872C220.456 78.5082 220.256 81.0882 221.006 83.4604C221.768 85.8146 223.195 87.8841 225.106 89.4068C229.795 93.2572 236.248 93.787 242.256 93.7335C247.522 93.6866 252.78 93.3173 258.003 92.6278C259.754 92.4688 261.473 92.0597 263.113 91.4123C265.074 90.543 266.797 88.9486 267.495 86.8796C268.194 84.8106 267.698 82.277 266.04 80.8962C264.583 79.683 262.574 79.5161 260.7 79.4007L249.977 78.7405C251.036 77.6421 252.447 77.0208 253.737 76.2223C255.449 75.1629 256.586 73.3841 257.83 71.7805C259.748 69.4325 261.834 67.2348 264.072 65.2058C264.421 67.2569 265.687 68.9411 267.178 70.3563C268.668 71.7715 270.386 72.9108 271.935 74.2582C275.688 77.5217 278.389 81.9511 282.335 84.9648C285.05 84.234 287.588 82.936 289.789 81.1523L288.256 78.3061C288.128 78.0132 287.929 77.7588 287.677 77.5672C287.243 77.2936 286.684 77.4346 286.18 77.3572C284.832 77.1502 284.244 75.5566 283.715 74.2702C282.264 70.7387 279.485 67.9987 277.112 65.0371C275.36 62.851 273.806 60.5061 272.469 58.0314C271.672 56.5556 270.942 55.0189 269.86 53.7473C268.778 52.4758 267.262 51.4762 265.616 51.4726C264.161 51.4694 262.819 52.2261 261.569 52.9872C257.759 55.3055 254.094 57.864 250.594 60.6477C248.762 62.1046 246.942 63.6438 244.793 64.5372C243.888 64.9133 242.935 65.1703 242.067 65.6279C240.547 66.4295 239.393 67.7856 238.151 68.9893C233.721 73.2829 227.657 76.0647 221.562 76.2872Z" fill="#3F3D56"/>
<path d="M243.984 45.7272C243.934 47.0396 243.662 48.3331 243.179 49.5498C242.934 50.1566 242.57 50.7052 242.109 51.1614C241.648 51.6176 241.1 51.9717 240.5 52.2015C239.647 52.4355 238.754 52.4652 237.888 52.2883C237.134 52.2076 236.406 51.9537 235.76 51.5457C234.755 50.8374 234.254 49.5737 234.071 48.337C233.888 47.1017 233.97 45.8395 233.853 44.5952C233.739 43.5903 233.553 42.5953 233.295 41.6186C233.216 41.2937 233.136 40.9703 233.057 40.6469C232.979 40.3235 232.903 40.0001 232.833 39.6767C232.769 39.3727 232.709 39.0673 232.658 38.7603C232.615 38.5013 232.577 38.2408 232.55 37.9787C232.524 37.2019 232.398 36.4321 232.174 35.6894C231.964 35.2077 231.701 34.7521 231.391 34.3313C231.258 34.1367 231.129 33.9421 231.011 33.7399C230.668 33.2146 230.509 32.5862 230.559 31.9566C230.573 31.8593 230.596 31.7636 230.628 31.6707C230.64 31.6347 230.653 31.5988 230.667 31.5644C230.799 31.5278 230.92 31.4589 231.019 31.3636C231.119 31.2684 231.194 31.1497 231.239 31.0178C231.289 30.7346 231.265 30.4427 231.17 30.1719C231.061 29.7934 230.911 29.4283 230.724 29.0833C230.602 28.8557 230.185 28.4455 230.182 28.1849C230.176 27.6609 231.176 27.2386 231.581 27.032C232.816 26.3981 234.194 26.1118 235.573 26.2025C236.458 26.2639 237.416 26.5424 237.904 27.3015C238.343 27.9858 238.284 28.8722 238.471 29.6673C238.491 29.7828 238.539 29.8915 238.61 29.9832C238.706 30.0722 238.826 30.1287 238.954 30.1449C239.17 30.189 239.392 30.1981 239.611 30.1718H239.613C239.671 30.1671 239.728 30.1586 239.785 30.1464C240.127 30.0818 240.449 29.939 240.729 29.7286C240.911 29.6792 241.093 29.6388 241.277 29.6074C241.285 29.6066 241.292 29.6051 241.299 29.6029C242.032 31.9701 242.127 34.508 242.726 36.9186C243.022 38.1179 243.448 39.3023 243.508 40.5361C243.512 40.59 243.513 40.6454 243.515 40.7008C243.524 41.0975 243.493 41.4973 243.509 41.8926C243.515 42.0706 243.534 42.2479 243.568 42.4226C243.633 42.7038 243.715 42.9808 243.812 43.2522L243.816 43.2656C243.844 43.3525 243.87 43.4408 243.892 43.5292C243.908 43.5935 243.923 43.6564 243.934 43.7208L243.936 43.7253C244.044 44.3869 244.06 45.0609 243.984 45.7272V45.7272Z" fill="#FBBEBE"/>
<path d="M233.728 30.2452C238.49 30.2452 242.35 26.2901 242.35 21.4112C242.35 16.5323 238.49 12.5772 233.728 12.5772C228.966 12.5772 225.105 16.5323 225.105 21.4112C225.105 26.2901 228.966 30.2452 233.728 30.2452Z" fill="#FBBEBE"/>
<path d="M288.471 69.5431C288.221 67.1329 287.384 64.8255 286.039 62.8322C286.262 64.1948 286.486 65.5568 286.711 66.9183C286.432 67.0011 286.135 66.9986 285.857 66.9111C285.58 66.8236 285.333 66.6549 285.147 66.4257C284.784 65.9613 284.506 65.4331 284.327 64.8671C283.348 62.3756 282.067 60.0199 280.514 57.8553C275.025 57.3866 269.599 55.0553 264.772 52.3377C259.943 49.6216 255.424 46.3651 250.66 43.5337C249.834 43.0222 248.974 42.5718 248.085 42.1861C246.594 41.5737 244.921 41.2563 243.508 40.5361C243.413 40.4882 243.318 40.4373 243.224 40.3849C242.905 40.207 242.602 39.9989 242.321 39.7635C242.169 39.6369 242.024 39.5009 241.888 39.3562C241.183 38.5158 240.624 37.5576 240.235 36.5234C239.477 34.8045 239.207 32.7307 238.45 31.0118C238.798 30.6787 239.188 30.3961 239.611 30.1719H239.613C239.674 30.1389 239.736 30.1075 239.798 30.0775C240.098 29.933 240.41 29.8162 240.729 29.7287C240.911 29.6792 241.093 29.6388 241.277 29.6074C241.285 29.6066 241.292 29.6051 241.299 29.6029C242.153 29.4603 243.028 29.5312 243.85 29.8095C245.051 30.2258 246.064 31.0568 247.074 31.8428C248.714 33.027 250.288 34.3057 251.787 35.6729C252.62 36.4904 253.38 37.3888 254.276 38.1314C255.02 38.7201 255.805 39.253 256.624 39.7261C261.472 42.6847 266.32 45.6428 271.168 48.6005C272.81 49.6022 274.452 50.6039 276.057 51.6639C278.495 53.275 280.845 55.0209 283.193 56.7652C284.577 57.7923 285.961 58.82 287.344 59.8481C287.798 60.1447 288.196 60.5219 288.52 60.9621C288.807 61.4619 288.985 62.019 289.042 62.5957C289.389 64.9252 289.193 67.3059 288.471 69.5431V69.5431Z" fill="#FBBEBE"/>
<path d="M246.122 52.3707C245.541 55.0433 242.904 56.6589 241.526 59.0067C239.813 61.9204 240.512 65.3072 241.155 68.6447C239.98 69.6823 238.804 70.7199 237.628 71.7576C236.979 72.328 236.331 72.9015 235.632 73.4061C234.613 74.1053 233.549 74.7317 232.446 75.2807C231.405 75.8287 230.365 76.3772 229.324 76.9262C228.357 77.4835 227.332 77.9284 226.268 78.2528C224.218 78.7918 222.04 78.4145 220.012 77.7901C219.773 77.7259 219.543 77.6297 219.328 77.5042C219.201 77.4269 219.091 77.3246 219.004 77.2032C218.804 76.8359 218.731 76.41 218.798 75.9949C219.004 72.4972 219.838 69.0729 220.67 65.6741C221.114 63.635 221.712 61.6342 222.457 59.6894C223.188 58.023 224.028 56.4093 224.972 54.8592C226.014 52.9088 227.248 51.0731 228.655 49.3806C229.34 48.7292 229.917 47.9675 230.362 47.1257C230.881 45.9129 230.681 44.5219 230.786 43.2013C230.866 42.2091 231.123 41.2403 231.544 40.3429V40.3415C231.769 39.8581 232.041 39.3987 232.354 38.9699C232.496 39.3083 232.637 39.6462 232.779 39.9836C232.873 40.2052 232.965 40.4263 233.057 40.6469C233.177 40.9314 233.296 41.2149 233.413 41.4974C233.754 42.3089 234.094 43.1199 234.434 43.9305C234.801 44.9513 235.323 45.906 235.983 46.7589C236.284 47.1956 236.691 47.5447 237.163 47.7722C237.636 47.9997 238.158 48.0978 238.678 48.057C239.199 48.0161 239.7 47.8376 240.133 47.539C240.566 47.2403 240.916 46.8317 241.149 46.3531C241.64 45.4596 241.996 44.4948 242.204 43.4918C242.493 42.2705 242.533 41.0013 242.321 39.7635C241.969 37.3798 240.979 34.9452 240.26 32.7308C239.968 31.9924 239.798 31.2089 239.759 30.4129C239.761 30.3235 239.769 30.2343 239.785 30.1464C239.79 30.124 239.794 30.1 239.799 30.0776C240.098 29.933 240.41 29.8163 240.729 29.7287C240.911 29.6793 241.093 29.6388 241.277 29.6074C241.91 33.117 242.544 36.6267 243.179 40.1363C243.193 40.2187 243.21 40.301 243.224 40.3849C243.315 40.888 243.407 41.3911 243.509 41.8927C243.601 42.3478 243.701 42.8015 243.812 43.2522L243.816 43.2657C243.854 43.4184 243.894 43.5696 243.934 43.7208L243.936 43.7253C244.048 44.1386 244.174 44.5488 244.316 44.9531C245.175 47.3892 246.673 49.8418 246.122 52.3707Z" fill="#7763FF"/>
<path d="M281.116 89.9301C281.089 90.4449 281.186 90.9587 281.399 91.4258C281.939 92.4362 283.233 92.6659 284.354 92.7604C290.899 93.3116 297.484 93.1061 303.984 92.1477C304.337 92.1229 304.679 92.0141 304.983 91.83C305.908 91.1661 305.338 89.5483 304.329 89.0303C303.32 88.5124 302.122 88.6372 301.015 88.4129C299.915 88.1292 298.867 87.6638 297.913 87.0348C295.668 85.7131 293.455 84.335 291.275 82.9007C289.977 82.0467 288.445 81.1354 286.983 81.6417C283.024 83.014 281.09 85.554 281.116 89.9301Z" fill="#3F3D56"/>
<path d="M232.867 39.4895V39.491C232.857 39.5539 232.846 39.6153 232.833 39.6767C232.817 39.7785 232.798 39.8818 232.779 39.9836C232.598 40.9344 232.376 41.8806 232.12 42.8209C231.419 45.4187 230.479 47.9746 229.546 50.4931C227.044 57.2458 224.542 63.9991 222.039 70.7529C221.408 72.4538 220.778 74.1562 220.06 75.8227C219.821 76.3782 219.574 76.9381 219.328 77.5041C218.448 79.53 217.604 81.6217 217.323 83.7778C217.061 85.1968 217.031 86.6504 217.234 88.0795C217.514 89.4929 218.352 90.8734 219.663 91.396C220.303 91.652 221.219 91.9949 221.044 92.6762C220.949 93.0505 220.534 93.2331 220.161 93.296C219.669 93.3764 219.166 93.3448 218.687 93.2035C218.208 93.0622 217.765 92.8147 217.39 92.4785C216.69 91.8422 216.152 90.8525 215.221 90.7462C214.577 90.6743 213.984 91.0696 213.393 91.3466C210.985 92.474 208.179 91.685 205.649 90.8839C205.848 89.8343 206.876 89.1426 207.898 88.933C208.92 88.7218 209.976 88.8716 211.018 88.8431C211.352 88.8614 211.683 88.7741 211.967 88.5931C212.221 88.3539 212.399 88.0419 212.478 87.6977C213.149 85.6601 213.649 83.5671 213.97 81.442C214.306 79.2215 214.447 76.9666 214.926 74.7731C215.299 73.0617 215.875 71.4042 216.369 69.7242C217.324 66.2653 218.108 62.7592 218.719 59.2193C219.027 57.7486 219.248 56.26 219.381 54.7618C219.464 53.5191 219.424 52.2703 219.541 51.0321C219.738 49.4211 220.066 47.8299 220.522 46.2752C220.969 44.5788 221.416 42.8833 221.862 41.1889C222.524 38.6809 223.234 36.0757 224.912 34.1262C225.495 33.4399 226.209 32.8835 227.01 32.4915C227.811 32.0995 228.683 31.8803 229.57 31.8473C229.903 31.8469 230.234 31.8836 230.559 31.9566C230.613 31.9701 230.667 31.9836 230.721 31.9985C231.076 32.0934 231.415 32.2375 231.731 32.4268C232.249 32.0899 232.512 32.2082 232.855 32.7277C233.156 33.2776 233.298 33.9039 233.264 34.5335C233.293 36.1949 233.16 37.8552 232.867 39.4895Z" fill="#FBBEBE"/>
<path d="M233.435 41.4749L233.413 41.4974L233.295 41.6186L232.12 42.821L231.544 40.343L229.57 31.8473C229.903 31.8469 230.234 31.8836 230.559 31.9566C230.573 31.8593 230.596 31.7635 230.628 31.6706L230.721 31.9985L231.391 34.3313L232.658 38.7603L232.867 39.4895V39.491L233.435 41.4749Z" fill="#7763FF"/>
<path d="M240.892 14.3717C240.891 15.1583 240.738 15.9371 240.443 16.6634C240.148 17.3897 239.717 18.0494 239.173 18.6047C238.976 18.8068 238.765 18.9938 238.541 19.1644C237.533 19.9433 236.304 20.3649 235.041 20.3655H228.03C226.481 20.363 224.996 19.7308 223.901 18.6075C222.806 17.4843 222.191 15.9619 222.191 14.3746C222.191 12.7873 222.806 11.2649 223.901 10.1417C224.996 9.0184 226.481 8.38614 228.03 8.38369H235.041C236.591 8.38782 238.075 9.01984 239.172 10.1417C240.268 11.2636 240.886 12.7843 240.892 14.3717V14.3717Z" fill="#2F2E41"/>
<path d="M247.465 14.8232C250.775 14.8232 253.457 12.0747 253.457 8.68427C253.457 5.29386 250.775 2.54539 247.465 2.54539C244.156 2.54539 241.473 5.29386 241.473 8.68427C241.473 12.0747 244.156 14.8232 247.465 14.8232Z" fill="#2F2E41"/>
<path opacity="0.1" d="M247.319 2.54539C247.246 2.54539 247.173 2.54838 247.1 2.55107C248.65 2.6088 250.118 3.28025 251.194 4.42414C252.271 5.56803 252.873 7.09518 252.873 8.68428C252.873 10.2734 252.271 11.8005 251.194 12.9444C250.118 14.0883 248.65 14.7597 247.1 14.8175C247.173 14.8202 247.246 14.8232 247.319 14.8232C248.908 14.8232 250.432 14.1764 251.556 13.0251C252.68 11.8739 253.311 10.3124 253.311 8.68428C253.311 7.05614 252.68 5.49469 251.556 4.34343C250.432 3.19216 248.908 2.54539 247.319 2.54539V2.54539Z" fill="black"/>
<path opacity="0.1" d="M218.821 2.54539C218.894 2.54539 218.967 2.54838 219.04 2.55107C217.49 2.6088 216.022 3.28025 214.946 4.42414C213.869 5.56803 213.267 7.09518 213.267 8.68428C213.267 10.2734 213.869 11.8005 214.946 12.9444C216.022 14.0883 217.49 14.7597 219.04 14.8175C218.967 14.8202 218.894 14.8232 218.821 14.8232C217.233 14.8217 215.71 14.1743 214.587 13.0232C213.465 11.8721 212.834 10.3115 212.834 8.68428C212.834 7.05708 213.465 5.49645 214.587 4.34534C215.71 3.19423 217.233 2.54682 218.821 2.54539Z" fill="black"/>
<path opacity="0.1" d="M238.541 19.1644C237.533 19.9433 236.304 20.3649 235.041 20.3655H228.03C226.767 20.3649 225.538 19.9433 224.53 19.1644H238.541Z" fill="black"/>
<path d="M283.818 63.6463C283.818 63.6463 285.328 68.1057 286.711 66.9183L285.609 61.0894L283.818 63.6463Z" fill="#FBBEBE"/>
<path d="M467.637 199.638C469.044 200.162 470.55 200.344 472.037 200.17C473.525 199.996 474.952 199.47 476.208 198.634C477.463 197.798 478.511 196.675 479.27 195.353C480.03 194.031 480.479 192.547 480.582 191.017C480.686 189.487 480.442 187.953 479.868 186.536C479.294 185.119 478.407 183.859 477.277 182.853C476.147 181.847 474.804 181.125 473.354 180.741C471.905 180.358 470.388 180.325 468.924 180.645L469.166 185.742L466.812 181.374C464.502 182.486 462.717 184.492 461.85 186.952C461.542 187.813 461.355 188.715 461.294 189.631C461.145 191.779 461.684 193.917 462.829 195.723C463.973 197.529 465.661 198.903 467.637 199.638V199.638Z" fill="#57B894"/>
<path d="M479.284 258.758C478.453 254.423 482.053 250.58 485.61 248.082C489.166 245.584 493.322 243.129 494.536 238.89C496.28 232.798 491.085 227.218 487.041 222.406C484.042 218.835 481.466 214.913 479.367 210.721C478.526 209.04 477.753 207.283 477.531 205.408C477.213 202.707 478.06 200.02 478.913 197.444C481.755 188.862 484.794 180.352 488.029 171.915" stroke="#3F3D56" stroke-miterlimit="10"/>
<path d="M468.035 198.326C469.442 198.85 470.948 199.032 472.436 198.858C473.923 198.683 475.35 198.158 476.606 197.322C477.861 196.486 478.909 195.363 479.668 194.041C480.428 192.719 480.877 191.234 480.98 189.704C481.084 188.174 480.84 186.64 480.266 185.224C479.692 183.807 478.805 182.546 477.675 181.541C476.545 180.535 475.202 179.812 473.752 179.429C472.303 179.046 470.786 179.013 469.322 179.333L469.564 184.43L467.21 180.061C464.9 181.174 463.115 183.18 462.248 185.64C461.94 186.501 461.753 187.403 461.692 188.318C461.543 190.466 462.082 192.605 463.227 194.411C464.371 196.217 466.059 197.591 468.035 198.326V198.326Z" stroke="#3F3D56" stroke-miterlimit="10"/>
<path d="M478.102 170.154C478.655 168.594 479.581 167.2 480.797 166.103C482.013 165.005 483.479 164.239 485.06 163.875L485.856 168.72L487.331 163.631C489.38 163.662 491.366 164.359 493.003 165.622C494.639 166.885 495.842 168.648 496.437 170.657C497.032 172.666 496.988 174.817 496.312 176.798C495.636 178.78 494.363 180.49 492.677 181.683C490.99 182.875 488.977 183.487 486.929 183.431C484.881 183.375 482.903 182.653 481.281 181.37C479.66 180.087 478.478 178.309 477.906 176.294C477.335 174.278 477.403 172.128 478.102 170.154H478.102Z" fill="#57B894"/>
<path d="M478.633 168.405C479.185 166.844 480.112 165.45 481.328 164.353C482.544 163.256 484.01 162.489 485.591 162.125L486.386 166.971L487.862 161.881C489.911 161.912 491.897 162.61 493.533 163.873C495.17 165.136 496.373 166.899 496.968 168.907C497.562 170.916 497.519 173.067 496.843 175.049C496.167 177.03 494.894 178.741 493.207 179.933C491.521 181.125 489.508 181.737 487.46 181.681C485.412 181.625 483.434 180.903 481.812 179.62C480.19 178.337 479.008 176.56 478.437 174.544C477.866 172.528 477.934 170.378 478.633 168.405H478.633Z" stroke="#3F3D56" stroke-miterlimit="10"/>
<path d="M485.345 222.504C487.576 223.334 490.027 223.293 492.231 222.389C494.434 221.486 496.237 219.784 497.294 217.606C498.351 215.429 498.589 212.93 497.963 210.584C497.337 208.238 495.891 206.211 493.899 204.888L492.766 208.799L491.962 203.896C491.954 203.892 491.945 203.889 491.937 203.886C490.744 203.442 489.476 203.243 488.208 203.3C486.939 203.358 485.694 203.671 484.544 204.222C483.393 204.772 482.36 205.55 481.503 206.51C480.646 207.47 479.982 208.593 479.549 209.816C479.116 211.039 478.922 212.338 478.979 213.637C479.036 214.937 479.343 216.212 479.881 217.391C480.419 218.569 481.179 219.627 482.116 220.505C483.054 221.382 484.151 222.062 485.345 222.504H485.345Z" fill="#57B894"/>
<path d="M485.805 220.732C488.036 221.561 490.487 221.52 492.691 220.617C494.894 219.714 496.697 218.011 497.754 215.834C498.811 213.657 499.049 211.157 498.423 208.812C497.797 206.466 496.351 204.438 494.359 203.115L493.225 207.026L492.421 202.123C492.414 202.12 492.405 202.116 492.397 202.114C491.203 201.669 489.936 201.47 488.668 201.528C487.399 201.585 486.154 201.899 485.004 202.449C483.853 203 482.82 203.778 481.963 204.737C481.106 205.697 480.442 206.821 480.009 208.044C479.576 209.267 479.382 210.565 479.439 211.865C479.496 213.165 479.803 214.44 480.341 215.618C480.879 216.797 481.639 217.855 482.576 218.732C483.514 219.61 484.611 220.289 485.805 220.732H485.805Z" stroke="#3F3D56" stroke-miterlimit="10"/>
<path d="M475.281 238.951C475.665 241.187 476.788 243.221 478.461 244.71C480.134 246.199 482.256 247.054 484.472 247.13C486.687 247.206 488.86 246.5 490.628 245.13C492.395 243.759 493.648 241.808 494.178 239.603C494.708 237.398 494.481 235.073 493.536 233.019C492.592 230.965 490.986 229.306 488.99 228.32C486.993 227.335 484.726 227.083 482.569 227.606C480.412 228.13 478.497 229.397 477.144 231.196L481.451 237.837L475.566 234.312C475.11 235.813 475.012 237.403 475.281 238.951V238.951Z" fill="#57B894"/>
<path d="M475.68 237.638C476.063 239.875 477.186 241.908 478.859 243.397C480.532 244.887 482.655 245.741 484.87 245.818C487.085 245.894 489.258 245.188 491.026 243.817C492.793 242.447 494.047 240.495 494.576 238.29C495.106 236.085 494.879 233.761 493.935 231.707C492.99 229.652 491.385 227.993 489.388 227.008C487.391 226.022 485.124 225.77 482.967 226.294C480.811 226.817 478.895 228.085 477.542 229.883L481.849 236.525L475.964 233C475.508 234.5 475.411 236.091 475.68 237.638V237.638Z" stroke="#3F3D56" stroke-miterlimit="10"/>
<path d="M4.18353 223.763C5.10792 224.107 6.09773 224.227 7.07494 224.112C8.05215 223.998 8.99006 223.652 9.81473 223.103C10.6394 222.554 11.3283 221.816 11.8271 220.947C12.3259 220.079 12.621 219.104 12.6892 218.098C12.7573 217.093 12.5966 216.085 12.2197 215.155C11.8429 214.224 11.2601 213.395 10.5175 212.735C9.77479 212.074 8.89249 211.599 7.94009 211.347C6.9877 211.095 5.99125 211.074 5.02929 211.284L5.18826 214.633L3.6417 211.763C2.12385 212.493 0.951241 213.812 0.381568 215.428C0.179253 215.994 0.0562607 216.586 0.0162599 217.188C-0.0813593 218.599 0.272648 220.004 1.02463 221.191C1.77662 222.377 2.8856 223.28 4.18353 223.763V223.763Z" fill="#57B894"/>
<path d="M11.8358 262.606C11.2899 259.757 13.6555 257.232 15.9923 255.591C18.329 253.95 21.0593 252.337 21.8566 249.552C23.0024 245.549 19.5893 241.883 16.9328 238.722C14.9619 236.376 13.2693 233.799 11.8906 231.044C11.2912 229.962 10.8829 228.781 10.6845 227.553C10.4751 225.779 11.0315 224.013 11.592 222.321C13.4594 216.683 15.456 211.092 17.5817 205.548" stroke="#3F3D56" stroke-miterlimit="10"/>
<path d="M4.44501 222.901C5.3694 223.245 6.35921 223.364 7.33642 223.25C8.31363 223.135 9.25153 222.79 10.0762 222.241C10.9009 221.692 11.5898 220.954 12.0886 220.085C12.5874 219.217 12.8825 218.241 12.9506 217.236C13.0188 216.231 12.8581 215.223 12.4812 214.292C12.1043 213.361 11.5216 212.533 10.7789 211.872C10.0363 211.212 9.15396 210.737 8.20157 210.485C7.24918 210.233 6.25273 210.212 5.29077 210.422L5.44974 213.771L3.90318 210.901C2.38532 211.631 1.21272 212.949 0.643043 214.565C0.44073 215.131 0.317739 215.724 0.277736 216.326C0.180111 217.737 0.534115 219.142 1.2861 220.328C2.03809 221.515 3.14707 222.418 4.44501 222.901V222.901Z" stroke="#3F3D56" stroke-miterlimit="10"/>
<path d="M11.0597 204.391C11.4224 203.366 12.0313 202.45 12.8301 201.729C13.629 201.008 14.5921 200.505 15.6308 200.265L16.1537 203.449L17.1232 200.105C18.4692 200.126 19.7741 200.584 20.8495 201.414C21.9248 202.244 22.7149 203.402 23.1057 204.722C23.4965 206.042 23.4678 207.455 23.0238 208.757C22.5797 210.059 21.7433 211.182 20.6352 211.966C19.5272 212.749 18.2048 213.151 16.8591 213.114C15.5134 213.077 14.2139 212.603 13.1483 211.76C12.0828 210.917 11.3062 209.749 10.9308 208.425C10.5553 207.1 10.6005 205.688 11.0597 204.391V204.391Z" fill="#57B894"/>
<path d="M11.4084 203.242C11.7712 202.216 12.38 201.301 13.1789 200.58C13.9777 199.859 14.9409 199.355 15.9796 199.116L16.5025 202.3L17.4719 198.956C18.818 198.976 20.1229 199.434 21.1982 200.264C22.2735 201.094 23.0636 202.252 23.4545 203.572C23.8453 204.892 23.8166 206.305 23.3725 207.607C22.9285 208.909 22.0921 210.033 20.984 210.816C19.8759 211.599 18.5536 212.001 17.2078 211.965C15.8621 211.928 14.5627 211.454 13.4971 210.611C12.4315 209.768 11.6549 208.6 11.2795 207.275C10.9041 205.951 10.9492 204.538 11.4084 203.242V203.242Z" stroke="#3F3D56" stroke-miterlimit="10"/>
<path d="M15.818 238.786C17.284 239.331 18.8944 239.304 20.3422 238.711C21.7901 238.117 22.9742 236.999 23.6688 235.568C24.3635 234.138 24.52 232.496 24.1087 230.954C23.6974 229.413 22.747 228.081 21.4386 227.212L20.6936 229.781L20.1654 226.56C20.1602 226.558 20.1548 226.555 20.1492 226.554C19.3651 226.262 18.5324 226.131 17.6989 226.168C16.8653 226.206 16.0471 226.412 15.2912 226.774C14.5352 227.135 13.8563 227.646 13.2931 228.277C12.7299 228.908 12.2936 229.646 12.0091 230.45C11.7245 231.253 11.5974 232.106 11.6348 232.96C11.6723 233.814 11.8736 234.652 12.2273 235.427C12.5811 236.201 13.0802 236.896 13.6963 237.473C14.3124 238.049 15.0334 238.495 15.818 238.786V238.786Z" fill="#57B894"/>
<path d="M16.1201 237.622C17.5861 238.167 19.1965 238.14 20.6444 237.546C22.0922 236.953 23.2763 235.834 23.971 234.404C24.6656 232.973 24.8222 231.331 24.4109 229.79C23.9995 228.249 23.0491 226.917 21.7407 226.047L20.9957 228.617L20.4675 225.396C20.4623 225.393 20.4569 225.391 20.4514 225.389C19.6674 225.098 18.8351 224.968 18.0019 225.006C17.1688 225.044 16.3512 225.25 15.5957 225.612C14.07 226.343 12.8902 227.665 12.3158 229.287C11.7415 230.909 11.8196 232.698 12.5331 234.262C13.2465 235.825 14.5368 237.033 16.1201 237.622V237.622Z" stroke="#3F3D56" stroke-miterlimit="10"/>
<path d="M9.20633 249.592C9.45839 251.061 10.196 252.397 11.2953 253.376C12.3947 254.354 13.789 254.916 15.2444 254.966C16.6999 255.016 18.1279 254.552 19.289 253.651C20.4501 252.751 21.2737 251.469 21.6217 250.02C21.9697 248.571 21.8209 247.044 21.2002 245.694C20.5796 244.345 19.5248 243.255 18.2129 242.607C16.9009 241.96 15.4115 241.794 13.9945 242.138C12.5775 242.482 11.319 243.315 10.4302 244.497L13.2597 248.86L9.39347 246.544C9.09369 247.53 9.02951 248.575 9.20633 249.592V249.592Z" fill="#57B894"/>
<path d="M9.4678 248.73C9.71987 250.199 10.4574 251.535 11.5568 252.513C12.6562 253.492 14.0505 254.053 15.5059 254.104C16.9613 254.154 18.3894 253.69 19.5505 252.789C20.7116 251.889 21.5352 250.607 21.8832 249.158C22.2312 247.709 22.0824 246.182 21.4617 244.832C20.841 243.483 19.7863 242.393 18.4743 241.745C17.1624 241.098 15.673 240.932 14.256 241.276C12.839 241.62 11.5805 242.453 10.6916 243.634L13.5212 247.998L9.65494 245.682C9.35517 246.668 9.29099 247.713 9.4678 248.73V248.73Z" stroke="#3F3D56" stroke-miterlimit="10"/>
<path d="M223.375 162.316C227.735 162.316 231.27 157.629 231.27 151.848C231.27 146.066 227.735 141.379 223.375 141.379C219.014 141.379 215.479 146.066 215.479 151.848C215.479 157.629 219.014 162.316 223.375 162.316Z" fill="#2F2E41"/>
<path d="M266.336 162.554C270.697 162.554 274.232 157.867 274.232 152.086C274.232 146.304 270.697 141.617 266.336 141.617C261.976 141.617 258.441 146.304 258.441 152.086C258.441 157.867 261.976 162.554 266.336 162.554Z" fill="#2F2E41"/>
<path d="M260.298 183.015C260.298 187.745 253.852 191.58 245.901 191.58C237.949 191.58 231.503 187.745 231.503 183.015C231.503 178.918 236.338 175.492 242.798 174.655C243.827 174.516 244.863 174.447 245.901 174.45C247.639 174.444 249.373 174.636 251.07 175.021C256.467 176.253 260.298 179.37 260.298 183.015Z" fill="#2F2E41"/>
<path d="M225.233 159.937C229.593 159.937 233.128 155.25 233.128 149.468C233.128 143.687 229.593 139 225.233 139C220.872 139 217.337 143.687 217.337 149.468C217.337 155.25 220.872 159.937 225.233 159.937Z" stroke="#3F3D56" stroke-miterlimit="10"/>
<path d="M268.194 160.175C272.555 160.175 276.09 155.488 276.09 149.706C276.09 143.925 272.555 139.238 268.194 139.238C263.833 139.238 260.298 143.925 260.298 149.706C260.298 155.488 263.833 160.175 268.194 160.175Z" stroke="#3F3D56" stroke-miterlimit="10"/>
<path d="M247.758 189.201C255.71 189.201 262.156 185.366 262.156 180.636C262.156 175.906 255.71 172.071 247.758 172.071C239.807 172.071 233.36 175.906 233.36 180.636C233.36 185.366 239.807 189.201 247.758 189.201Z" stroke="#3F3D56" stroke-miterlimit="10"/>
<path d="M251.242 175.735C251.245 176.333 251.026 176.91 250.629 177.349C250.441 177.559 250.213 177.727 249.958 177.842C249.704 177.957 249.43 178.018 249.152 178.019H244.507C243.935 177.998 243.394 177.747 243.002 177.319C242.61 176.891 242.4 176.321 242.417 175.735C242.415 175.271 242.547 174.817 242.798 174.43C243.826 174.282 244.863 174.209 245.9 174.212C247.641 174.206 249.376 174.411 251.07 174.821C251.184 175.111 251.243 175.422 251.242 175.735V175.735Z" fill="white"/>
<path d="M225.233 148.993C226.515 148.993 227.555 147.927 227.555 146.613C227.555 145.299 226.515 144.234 225.233 144.234C223.95 144.234 222.91 145.299 222.91 146.613C222.91 147.927 223.95 148.993 225.233 148.993Z" fill="white"/>
<path d="M268.426 148.993C269.709 148.993 270.748 147.927 270.748 146.613C270.748 145.299 269.709 144.234 268.426 144.234C267.144 144.234 266.104 145.299 266.104 146.613C266.104 147.927 267.144 148.993 268.426 148.993Z" fill="white"/>
<path opacity="0.3" d="M270.749 171.357C272.031 171.357 273.071 170.292 273.071 168.978C273.071 167.664 272.031 166.599 270.749 166.599C269.466 166.599 268.426 167.664 268.426 168.978C268.426 170.292 269.466 171.357 270.749 171.357Z" fill="#7763FF"/>
<path opacity="0.3" d="M214.086 171.357C215.368 171.357 216.408 170.292 216.408 168.978C216.408 167.664 215.368 166.599 214.086 166.599C212.803 166.599 211.764 167.664 211.764 168.978C211.764 170.292 212.803 171.357 214.086 171.357Z" fill="#7763FF"/>
</g>
<defs>
<clipPath id="clip0_2_4">
<rect width="499" height="278" fill="white"/>
</clipPath>
</defs>
</svg>
